# xmcd
#
# Track frame offsets: 
#        150
#        14655
#        28863
#        42286
#        64002
#        80913
#        91243
#        113958
#        130457
#        143432
#        166016
#        181948
#        202480
#
# Disc length: 2887 seconds
#
# Revision: 3
# Processed by: cddbd v1.5.2PL0 Copyright (c) Steve Scherf et al.
# Submitted via: ExactAudioCopyFreeDBPlugin 1.0
#
DISCID=b80b450d
DTITLE=Suzanne Vega - Close-Up Volume 2 - People and Places
DYEAR=2010
DGENRE=Alternative
TTITLE0=Luka
TTITLE1=Zephyr and I
TTITLE2=NY Is A Woman
TTITLE3=In Liverpool
TTITLE4=Calypso
TTITLE5=Fat Man and Dancing Girl
TTITLE6=The Queen and The Soldier
TTITLE7=Rock In This Pocket (Song Of David)
TTITLE8=Angel's Doorway
TTITLE9=Ironbound - Fancy Poultry
TTITLE10=Neighborhood Girls
TTITLE11=Tom's Diner
TTITLE12=The Man Who Played God
EXTD=
EXTT0=
EXTT1=
EXTT2=
EXTT3=
EXTT4=
EXTT5=
EXTT6=
EXTT7=
EXTT8=
EXTT9=
EXTT10=
EXTT11=
EXTT12=
PLAYORDER=
